# xmcd CD database file
#
# Track frame offsets:
#	150
#	22550
#	42236
#	64333
#	82519
#	100073
#	121011
#	141679
#	162614
#	186448
#	213557
#	271808
#	289935
#	315538
#
# Disc length: 4614 seconds
#
# Revision: 0
# Processed by: cddbd v1.5.1PL0 Copyright (c) Steve Scherf et al.
# Submitted via: CDex 1.51
#
DISCID=c412040e
DTITLE=Fishmans - 宇宙 ベスト・オブ・フィッシュマンズ [BEST TRACKS] [Disc 1]
DYEAR=2005
DGENRE=Japanese Pop
TTITLE0=ずっと前
TTITLE1=気分
TTITLE2=MAGIC LOVE
TTITLE3=エヴリデイ・エヴリナイト
TTITLE4=Just Thing
TTITLE5=SLOW DAYS
TTITLE6=あの娘が眠ってる
TTITLE7=頼りない天使
TTITLE8=MELODY
TTITLE9=ナイトクルージング
TTITLE10=WALKING IN THE RHYTHM
TTITLE11=100ミリちょっとの
TTITLE12=夜の想い
TTITLE13=新しい人
EXTD=YEAR: 2005
EXTT0=
EXTT1=
EXTT2=
EXTT3=
EXTT4=
EXTT5=
EXTT6=
EXTT7=
EXTT8=
EXTT9=
EXTT10=
EXTT11=
EXTT12=
EXTT13=
PLAYORDER=
